<?xml version="1.0" encoding="utf-8"?><svg viewBox="0 0 51 52" xmlns="http://www.w3.org/2000/svg" xmlns:xlink="http://www.w3.org/1999/xlink"><style>:root>svg{display:none}:root>svg:target{display:block}</style><svg fill="none" viewBox="0 0 31 52" id="next" xmlns="http://www.w3.org/2000/svg"><path d="m3 3 23 23L3 49" stroke="#fff" stroke-opacity=".7" stroke-width="7"/></svg><svg fill="none" viewBox="0 0 51 51" id="next2" xmlns="http://www.w3.org/2000/svg"><path fill-rule="evenodd" clip-rule="evenodd" d="M25.5 51C11.417 51 0 39.583 0 25.5S11.417 0 25.5 0 51 11.417 51 25.5 39.583 51 25.5 51Zm-9.766-37.599 12.133 12.134-12.133 12.133 4.063 4.063 16.119-16.197L19.797 9.338l-4.063 4.063Z" fill="#D9D9D9"/></svg><svg fill="none" viewBox="0 0 31 52" id="prev" xmlns="http://www.w3.org/2000/svg"><path d="M28 3 5 26l23 23" stroke="#fff" stroke-opacity=".7" stroke-width="7"/></svg><svg fill="none" viewBox="0 0 51 51" id="prev2" xmlns="http://www.w3.org/2000/svg"><path fill-rule="evenodd" clip-rule="evenodd" d="M25.5 51C39.583 51 51 39.583 51 25.5S39.583 0 25.5 0 0 11.417 0 25.5 11.417 51 25.5 51Zm9.766-37.599L23.133 25.535l12.133 12.133-4.063 4.063-16.118-16.197L31.203 9.338l4.063 4.063Z" fill="#D9D9D9"/></svg></svg>